<?xml version="1.0" encoding="iso-8859-1"?>
<!-- Generator: Adobe Illustrator 19.0.0, SVG Export Plug-In . SVG Version: 6.00 Build 0)  -->
<svg version="1.1" id="Capa_1" xmlns="http://www.w3.org/2000/svg" xmlns:xlink="http://www.w3.org/1999/xlink" x="0px" y="0px"
	 viewBox="0 0 507.9 507.9" style="enable-background:new 0 0 507.9 507.9;" xml:space="preserve">
<g>
	<g>
		<path d="M467,241.55h-81.9V61.35H248l-58.2,180.3h-1.4c-22.6,0-41,18.4-41,41v8.2h-32.8v-205H98.2v319.5H0v16.5h114.7v-65.5h32.8
			v8.2c0,22.6,18.4,41,41,41h17.1c3.9,23.2,24.1,41,48.4,41s44.5-17.8,48.4-41h58.8c3.9,23.2,24.1,41,48.4,41s44.5-17.8,48.4-41h8.9
			c22.6,0,41-18.4,41-41v-81.9C508,259.95,489.6,241.55,467,241.55z M147.5,339.85h-32.8v-32.8h32.8V339.85z M260,77.65h108.7v163.9
			H257.6l20.4-54.5l-15.3-5.8l-22.6,60.2H207L260,77.65z M254,430.05c-18.1,0-32.8-14.7-32.8-32.8c0-18.1,14.7-32.8,32.8-32.8
			c18.1,0,32.8,14.7,32.8,32.8S272.1,430.05,254,430.05z M409.7,430.05c-18.1,0-32.8-14.7-32.8-32.8c0-18.1,14.7-32.8,32.8-32.8
			s32.8,14.7,32.8,32.8S427.7,430.05,409.7,430.05z M491.6,364.45c0,13.6-11,24.6-24.6,24.6h-8.9c-3.9-23.2-24.1-41-48.4-41
			s-44.5,17.8-48.4,41h-58.8c-3.9-23.2-24.1-41-48.4-41s-44.5,17.8-48.4,41h-17.1c-13.6,0-24.6-11-24.6-24.6v-81.9
			c0-13.6,11-24.6,24.6-24.6H467c13.6,0,24.6,11,24.6,24.6V364.45z"/>
	</g>
</g>
<g>
	<g>
		<rect x="286.8" y="298.95" width="16.4" height="16.4"/>
	</g>
</g>
<g>
	<g>
		<rect x="319.5" y="298.95" width="16.4" height="16.4"/>
	</g>
</g>
<g>
	<g>
		<rect x="352.3" y="298.95" width="16.4" height="16.4"/>
	</g>
</g>
<g>
</g>
<g>
</g>
<g>
</g>
<g>
</g>
<g>
</g>
<g>
</g>
<g>
</g>
<g>
</g>
<g>
</g>
<g>
</g>
<g>
</g>
<g>
</g>
<g>
</g>
<g>
</g>
<g>
</g>
</svg>
