<?xml version="1.0"?>
<svg xmlns="http://www.w3.org/2000/svg" width="512" height="512" viewBox="0 0 512 512"><g><path d="M464,440H433.87a23.9,23.9,0,0,0,4.75-8H456a8,8,0,0,0,8-8V328a8,8,0,0,0-8-8H352a8,8,0,0,0-8,8v8H328V240a8.011,8.011,0,0,0-4.42-7.16l-128-64a8.049,8.049,0,0,0-7.16,0l-128,64A8.011,8.011,0,0,0,56,240V440H16a8,8,0,0,0,0,16H464a8,8,0,0,0,0-16ZM360,336h88v40H360ZM160,432H128V400h8v8a8,8,0,0,0,16,0v-8h8Zm48,0H176V400h8v8a8,8,0,0,0,16,0v-8h8Zm72,0v8H224V392a8,8,0,0,0-8-8H120a8,8,0,0,0-8,8v48h-8V336H280v25a7.987,7.987,0,0,0,.14,1.48l-6.54,8.72A7.982,7.982,0,0,0,272,376v48A8,8,0,0,0,280,432ZM104,320v-8H280v8Zm-8-24a8,8,0,0,0-8,8V440H72V244.94l120-60,120,60V336h-8a8.009,8.009,0,0,0-6.4,3.2l-1.6,2.13V304a8,8,0,0,0-8-8Zm216,80v8H288v-5.33l2-2.67Zm-16,64v-8h1.38a23.9,23.9,0,0,0,4.75,8Zm24-8a8,8,0,1,1,8-8A8.011,8.011,0,0,1,320,432Zm0-32a24.031,24.031,0,0,0-22.62,16H288V400h32a8,8,0,0,0,8-8V368a8,8,0,0,0-8-8H302l6-8h36v64h-1.38A24.031,24.031,0,0,0,320,400Zm17.87,40a23.9,23.9,0,0,0,4.75-8h50.76a23.9,23.9,0,0,0,4.75,8ZM416,432a8,8,0,1,1,8-8A8.011,8.011,0,0,1,416,432Zm0-32a24.031,24.031,0,0,0-22.62,16H360V392h88v24h-9.38A24.031,24.031,0,0,0,416,400Z"/><path d="M496,440h-8a8,8,0,0,0,0,16h8a8,8,0,0,0,0-16Z"/><path d="M144,280h96a8,8,0,0,0,8-8V240a8,8,0,0,0-8-8H144a8,8,0,0,0-8,8v32A8,8,0,0,0,144,280Zm88-16H200V248h32Zm-80-16h32v16H152Z"/><path d="M328,176H432a48,48,0,0,0,0-96q-1.937,0-3.876.157A60.023,60.023,0,0,0,323.315,96.272,40,40,0,0,0,328,176Zm-23.242-46.007A23.979,23.979,0,0,1,328,112c.342,0,.691.007,1.033.022a8.03,8.03,0,0,0,8.144-6.16,44.006,44.006,0,0,1,80.3-12.915,8.011,8.011,0,0,0,8.35,3.654A32,32,0,1,1,432,160H328a24.02,24.02,0,0,1-23.242-30.007Z"/></g></svg>
