<svg xmlns="http://www.w3.org/2000/svg" height="512pt" viewBox="0 0 512 512" width="512pt"><path d="m74 275.609375c2.628906 0 5.210938-1.058594 7.070312-2.917969 1.859376-1.871094 2.929688-4.441406 2.929688-7.082031 0-2.628906-1.070312-5.210937-2.929688-7.070313-1.859374-1.859374-4.441406-2.929687-7.070312-2.929687s-5.210938 1.070313-7.070312 2.929687c-1.859376 1.859376-2.929688 4.441407-2.929688 7.070313 0 2.640625 1.070312 5.21875 2.929688 7.082031 1.859374 1.859375 4.441406 2.917969 7.070312 2.917969zm0 0"></path><path d="m506.839844 137.25-91.394532-50.527344c-4.832031-2.675781-10.917968-.917968-13.589843 3.914063s-.917969 10.917969 3.914062 13.589843l86.230469 47.671876v340.101562h-44v-314c0-5.523438-4.476562-10-10-10h-364c-5.523438 0-10 4.476562-10 10v47.613281c0 5.523438 4.476562 10 10 10s10-4.476562 10-10v-37.613281h344v304h-41.871094v-100c0-11.027344-8.972656-20-20-20h-40v-100c0-11.027344-8.972656-20-20-20h-100c-11.03125 0-20 8.972656-20 20v100h-40.128906c-11.027344 0-20 8.972656-20 20v100h-42v-186.386719c0-5.523437-4.476562-10-10-10s-10 4.476563-10 10v186.386719h-44v-340.101562l236-130.472657 79.753906 44.09375c4.832032 2.671875 10.917969.917969 13.589844-3.914062s.917969-10.917969-3.914062-13.589844l-84.589844-46.765625c-3.011719-1.667969-6.667969-1.667969-9.679688 0l-246 136c-3.183594 1.757812-5.160156 5.109375-5.160156 8.75v356c0 5.523438 4.476562 10 10 10h492c5.523438 0 10-4.476562 10-10v-356c0-3.640625-1.976562-6.992188-5.160156-8.75zm-200.710938 254.75h20v20h-20zm-40.128906-120v20h-20v-20zm-59.871094 0h19.871094v30c0 5.523438 4.476562 10 10 10h40c5.523438 0 10-4.476562 10-10v-30h20.128906l.011719 100s-.003906 0-.011719 0h-100zm0 120v20h-20v-20zm-60.128906 100v-100h20.128906v30c0 5.523438 4.476563 10 10 10h40c5.519532 0 10-4.476562 10-10v-30h19.871094l.011719 100s-.003907 0-.011719 0zm120.128906 0v-100h20v30c0 5.523438 4.476563 10 10 10h40c5.519532 0 10-4.476562 10-10v-30h20l.011719 100s-.003906 0-.011719 0zm0 0"></path><path d="m375.601562 86.121094c2.628907 0 5.207032-1.070313 7.070313-2.929688 1.859375-1.863281 2.929687-4.441406 2.929687-7.070312 0-2.632813-1.070312-5.210938-2.929687-7.070313-1.863281-1.859375-4.441406-2.929687-7.070313-2.929687-2.632812 0-5.210937 1.070312-7.070312 2.929687s-2.929688 4.4375-2.929688 7.070313c0 2.628906 1.070313 5.207031 2.929688 7.070312 1.859375 1.859375 4.4375 2.929688 7.070312 2.929688zm0 0"></path><path d="m214 102c0 23.160156 18.839844 42 42 42s42-18.839844 42-42-18.839844-42-42-42-42 18.839844-42 42zm64 0c0 12.128906-9.867188 22-22 22s-22-9.871094-22-22c0-12.132812 9.867188-22 22-22s22 9.867188 22 22zm0 0"></path></svg>