<svg xmlns="http://www.w3.org/2000/svg" width="17" height="16.094" viewBox="0 0 17 16.094">
  <defs>
    <style>
      .cls-1 {
        fill: #333;
        fill-rule: evenodd;
      }
    </style>
  </defs>
  <path id="Cart" class="cls-1" d="M1181.58,89h-3.59v2h2.27l0.94,3.323,1.96,6.676h10.11l1.73-9h-13Zm10.46,10h-7.68l-1.37-5h10Zm-1.05,3a2,2,0,0,0-2,2c0,1.1.91,1,2.01,1s1.99,0.1,1.99-1A2,2,0,0,0,1190.99,102Zm-6,0a2,2,0,0,0-2,2c0,1.1.91,1,2.01,1s1.99,0.1,1.99-1A2,2,0,0,0,1184.99,102Z" transform="translate(-1178 -89)"/>
</svg>
