<svg xmlns="http://www.w3.org/2000/svg" width="26" height="20" viewBox="0 0 26 20">
  <defs>
    <style>
      .cls-1 {
        fill: #e6ae48;
        fill-rule: evenodd;
      }
    </style>
  </defs>
  <path id="Icon" class="cls-1" d="M792.5,4066.77a5.607,5.607,0,0,0,1.543-.22,12.818,12.818,0,0,1-3.123,7.91l1.572,1.54c4.816-4.74,5.415-12.47,5.489-14.24,0.009-.12.019-0.25,0.019-0.37A5.5,5.5,0,1,0,792.5,4066.77Zm15,0a5.607,5.607,0,0,0,1.543-.22,12.818,12.818,0,0,1-3.123,7.91l1.572,1.54c4.816-4.74,5.415-12.47,5.489-14.24,0.009-.12.019-0.25,0.019-0.37A5.5,5.5,0,1,0,807.5,4066.77Z" transform="translate(-787 -4056)"/>
</svg>
